<svg width="16" height="16" viewBox="0 0 16 16" fill="none" xmlns="http://www.w3.org/2000/svg">
<g clip-path="url(#clip0_710_6456)">
<path d="M14.6667 11.0472C14.6664 11.9589 14.3547 12.8432 13.7834 13.5536C13.212 14.2641 12.4151 14.7581 11.5247 14.9539L11.0993 13.6779C11.4888 13.6137 11.8592 13.464 12.1839 13.2394C12.5085 13.0149 12.7793 12.7211 12.9767 12.3792H11.3333C10.9797 12.3792 10.6406 12.2388 10.3905 11.9887C10.1405 11.7387 10 11.3995 10 11.0459V8.37923C10 8.02561 10.1405 7.68647 10.3905 7.43642C10.6406 7.18637 10.9797 7.0459 11.3333 7.0459H13.292C13.1293 5.75716 12.502 4.57208 11.5276 3.71302C10.5533 2.85395 9.29897 2.37995 8.00001 2.37995C6.70105 2.37995 5.44672 2.85395 4.47239 3.71302C3.49806 4.57208 2.8707 5.75716 2.70801 7.0459H4.66668C5.0203 7.0459 5.35944 7.18637 5.60949 7.43642C5.85953 7.68647 6.00001 8.02561 6.00001 8.37923V11.0459C6.00001 11.3995 5.85953 11.7387 5.60949 11.9887C5.35944 12.2388 5.0203 12.3792 4.66668 12.3792H2.66668C2.31305 12.3792 1.97392 12.2388 1.72387 11.9887C1.47382 11.7387 1.33334 11.3995 1.33334 11.0459V7.71257C1.33334 4.03057 4.31801 1.0459 8.00001 1.0459C11.682 1.0459 14.6667 4.03057 14.6667 7.71257V11.0472ZM13.3333 11.0459V8.37923H11.3333V11.0459H13.3333ZM2.66668 8.37923V11.0459H4.66668V8.37923H2.66668Z" fill="#164194"/>
</g>
<defs>
<clipPath id="clip0_710_6456">
<rect width="16" height="16" fill="white"/>
</clipPath>
</defs>
</svg>
