<svg width="16" height="16" viewBox="0 0 16 16" fill="none" xmlns="http://www.w3.org/2000/svg">
<g clip-path="url(#clip0_710_6472)">
<path d="M3.99999 7.33335H9.33332V8.66668H3.99999V10.6667L0.666656 8.00001L3.99999 5.33335V7.33335ZM3.33332 12H5.13866C5.90845 12.6789 6.85778 13.1213 7.87274 13.274C8.8877 13.4267 9.92517 13.2833 10.8607 12.861C11.7961 12.4387 12.5899 11.7555 13.1467 10.8932C13.7035 10.031 13.9997 9.0264 13.9997 8.00001C13.9997 6.97363 13.7035 5.96904 13.1467 5.1068C12.5899 4.24457 11.7961 3.5613 10.8607 3.13901C9.92517 2.71672 8.8877 2.57333 7.87274 2.72605C6.85778 2.87877 5.90845 3.32112 5.13866 4.00001H3.33332C3.95376 3.17146 4.75888 2.49902 5.6847 2.03611C6.61053 1.57319 7.63155 1.33257 8.66666 1.33335C12.3487 1.33335 15.3333 4.31801 15.3333 8.00001C15.3333 11.682 12.3487 14.6667 8.66666 14.6667C7.63155 14.6675 6.61053 14.4268 5.6847 13.9639C4.75888 13.501 3.95376 12.8286 3.33332 12Z" fill="#164194"/>
</g>
<defs>
<clipPath id="clip0_710_6472">
<rect width="16" height="16" fill="white"/>
</clipPath>
</defs>
</svg>
