<svg width="16" height="16" viewBox="0 0 16 16" fill="none" xmlns="http://www.w3.org/2000/svg">
<g clip-path="url(#clip0_710_6462)">
<path d="M15 8.99999C15.001 8.49932 14.8767 8.00635 14.6384 7.56602C14.4001 7.1257 14.0554 6.75202 13.6357 6.47904C13.2159 6.20607 12.7346 6.04247 12.2354 6.00318C11.7363 5.96389 11.2353 6.05014 10.778 6.25408C10.3208 6.45801 9.92182 6.77315 9.61755 7.17076C9.31328 7.56837 9.11336 8.03581 9.03601 8.53048C8.95867 9.02514 9.00636 9.5313 9.17473 10.0028C9.34311 10.4743 9.62681 10.8962 9.99999 11.23V15L12 14.0537L14 15V11.23C14.3143 10.9497 14.5659 10.6061 14.7382 10.2218C14.9106 9.83753 14.9998 9.42116 15 8.99999ZM13 13.42L12 12.9466L11 13.42V11.825C11.6462 12.0584 12.3538 12.0584 13 11.825V13.42ZM12 11C11.6044 11 11.2178 10.8827 10.8889 10.6629C10.56 10.4432 10.3036 10.1308 10.1522 9.76536C10.0009 9.3999 9.96125 8.99777 10.0384 8.60981C10.1156 8.22185 10.3061 7.86548 10.5858 7.58578C10.8655 7.30607 11.2219 7.11559 11.6098 7.03842C11.9978 6.96125 12.3999 7.00086 12.7654 7.15223C13.1308 7.30361 13.4432 7.55995 13.6629 7.88885C13.8827 8.21775 14 8.60443 14 8.99999C13.9994 9.53024 13.7885 10.0386 13.4136 10.4135C13.0386 10.7885 12.5302 10.9994 12 11Z" fill="#164194"/>
<path d="M8 7H4.5V8H8V7Z" fill="#164194"/>
<path d="M9.5 4H4.5V5H9.5V4Z" fill="#164194"/>
<path d="M3 15C2.73487 14.9997 2.48068 14.8943 2.2932 14.7068C2.10572 14.5193 2.00028 14.2651 2 14V2C2.00028 1.73487 2.10572 1.48068 2.2932 1.2932C2.48068 1.10572 2.73487 1.00028 3 1H11C11.2651 1.00028 11.5193 1.10572 11.7068 1.2932C11.8943 1.48068 11.9997 1.73487 12 2V4H11V2H3V14H8V15H3Z" fill="#164194"/>
</g>
<defs>
<clipPath id="clip0_710_6462">
<rect width="16" height="16" fill="white"/>
</clipPath>
</defs>
</svg>
