<svg width="16" height="16" viewBox="0 0 16 16" fill="none" xmlns="http://www.w3.org/2000/svg">
<g clip-path="url(#clip0_710_6459)">
<path d="M12.6667 14.6667H3.33334C2.80291 14.6667 2.2942 14.456 1.91913 14.0809C1.54406 13.7058 1.33334 13.1971 1.33334 12.6667V2.00001C1.33334 1.8232 1.40358 1.65363 1.52861 1.52861C1.65363 1.40358 1.8232 1.33334 2.00001 1.33334H11.3333C11.5102 1.33334 11.6797 1.40358 11.8047 1.52861C11.9298 1.65363 12 1.8232 12 2.00001V10H14.6667V12.6667C14.6667 13.1971 14.456 13.7058 14.0809 14.0809C13.7058 14.456 13.1971 14.6667 12.6667 14.6667ZM12 11.3333V12.6667C12 12.8435 12.0702 13.0131 12.1953 13.1381C12.3203 13.2631 12.4899 13.3333 12.6667 13.3333C12.8435 13.3333 13.0131 13.2631 13.1381 13.1381C13.2631 13.0131 13.3333 12.8435 13.3333 12.6667V11.3333H12ZM10.6667 13.3333V2.66668H2.66668V12.6667C2.66668 12.8435 2.73691 13.0131 2.86194 13.1381C2.98696 13.2631 3.15653 13.3333 3.33334 13.3333H10.6667ZM4.00001 4.66668H9.33334V6.00001H4.00001V4.66668ZM4.00001 7.33334H9.33334V8.66668H4.00001V7.33334ZM4.00001 10H7.33334V11.3333H4.00001V10Z" fill="#164194"/>
</g>
<defs>
<clipPath id="clip0_710_6459">
<rect width="16" height="16" fill="white"/>
</clipPath>
</defs>
</svg>
